<svg id="Layer_1" data-name="Layer 1" xmlns="http://www.w3.org/2000/svg" viewBox="0 0 100 85"><defs><style>.cls-1{fill:#5e6368;stroke:#5e6368;stroke-miterlimit:10;stroke-width:0.5px;}.cls-2,.cls-4{fill:#fff;stroke:#9e925e;stroke-linecap:round;stroke-linejoin:round;}.cls-2{stroke-width:1.5px;}.cls-3{fill:#9e925e;}.cls-4{stroke-width:1.3px;}</style></defs><path class="cls-1" d="M50,49.7a14.23,14.23,0,0,0-10.61,4.72A1.09,1.09,0,0,0,41,55.87a12.1,12.1,0,0,1,18,0,1.09,1.09,0,0,0,1.54.08,1.08,1.08,0,0,0,.08-1.53A14.23,14.23,0,0,0,50,49.7Z"/><path class="cls-1" d="M50,19.2a25.05,25.05,0,1,0,25,25.05A25.08,25.08,0,0,0,50,19.2Zm0,47.92A22.87,22.87,0,1,1,72.87,44.25,22.9,22.9,0,0,1,50,67.12Z"/><path class="cls-1" d="M59.52,45.86A3.51,3.51,0,1,1,63,42.39,3.52,3.52,0,0,1,59.52,45.86Zm-1.47-3.52a1.49,1.49,0,0,0,1.51,1.52A1.54,1.54,0,0,0,61,42.35a1.49,1.49,0,0,0-1.5-1.48A1.45,1.45,0,0,0,58.05,42.34Z"/><path class="cls-1" d="M40.48,45.86A3.51,3.51,0,1,1,44,42.34,3.52,3.52,0,0,1,40.48,45.86Zm0-5a1.5,1.5,0,1,0,0,3,1.49,1.49,0,0,0,1.51-1.52A1.47,1.47,0,0,0,40.44,40.86Z"/><path class="cls-1" d="M34.35,37.73a1.16,1.16,0,0,1-1.14-.91,1.11,1.11,0,0,1,.72-1.26c.94-.37,1.89-.71,2.84-1.07l6-2.25a1.14,1.14,0,0,1,1.31.23,1,1,0,0,1,.24,1.15,1.47,1.47,0,0,1-.68.67c-2.95,1.14-5.91,2.24-8.87,3.35A3.43,3.43,0,0,1,34.35,37.73Z"/><path class="cls-1" d="M56.75,32.12a5.06,5.06,0,0,1,.51.14c2.87,1.07,5.76,2.14,8.62,3.24a1.79,1.79,0,0,1,.8.69.94.94,0,0,1-.18,1.16,1,1,0,0,1-1.2.3c-1-.36-2-.75-3-1.13l-5.74-2.15c-.76-.28-1.09-.85-.86-1.49A1.14,1.14,0,0,1,56.75,32.12Z"/><rect class="cls-2" x="51.8" y="4.13" width="29.15" height="19.5" rx="2.03"/><path class="cls-3" d="M63.88,17.1c.68-.3,1.27-.61,1.89-.82a3.86,3.86,0,0,1,4.55,1.6,1.65,1.65,0,0,1-1,2.74,6.25,6.25,0,0,1-5.18-1,.66.66,0,0,0-.83,0c-3,1.81-4.6-.45-4.83-2.65a5.39,5.39,0,0,1,.27-2.29,2.22,2.22,0,0,1,2.72-1.4c.67-2.2,2.32-3.13,4.42-3.51a.67.67,0,0,0,.39-.43c.14-.4.18-.84.32-1.24a2.07,2.07,0,0,1,2.62-1.46,4.31,4.31,0,0,1,3.15,2.71,7.48,7.48,0,0,1,.19,1.87c1.94,1.58,2.34,2.69,1.32,3.95a3.3,3.3,0,0,1-4.46.68c-1.35-1.07-1.47-2.62-.25-4.18l-1.33-.21c-.42,2.57-1.48,4.42-4.62,4.07Zm-2.67-2c-.7-.15-1,0-1,.79a4.58,4.58,0,0,0,.17,1.61c.35,1.19,1.08,1.36,2,.61Zm9.93-.38a1,1,0,0,0,.36,0c.37-.24.72-.5,1.07-.75a5,5,0,0,0-.7-.93c-.74-.63-.86-.6-1.49,0a.81.81,0,0,0-.3,1A1.09,1.09,0,0,0,71.14,14.68Zm-5.26-3.06a2.78,2.78,0,0,0-2.65,2A1.88,1.88,0,0,0,65.88,11.62Zm4.9-1.37a2.09,2.09,0,0,0-1.09-1.48c-.36-.22-.91-.49-1.2-.36s-.33.75-.47,1.15c0,0,0,.07,0,.09Zm-1.94,8.67a2.22,2.22,0,0,0-3.44-.52A4.7,4.7,0,0,0,68.84,18.92Z"/><rect class="cls-4" x="65.79" y="29.2" width="5.61" height="3.76" rx="1.8"/><rect class="cls-4" x="72.24" y="25.45" width="5.61" height="3.76" rx="1.8"/></svg>