<svg id="Layer_1" data-name="Layer 1" xmlns="http://www.w3.org/2000/svg" viewBox="0 0 100 85"><defs><style>.cls-1{fill:#5e6368;}.cls-2{fill:#9e925e;}</style></defs><path class="cls-1" d="M81.43,24.59a2.18,2.18,0,0,0-1.55-1l-.43,0,.43-3.15a2.55,2.55,0,0,0-1.83-2.81l-9.79-2.79a2.6,2.6,0,0,0-2.1.32A2.56,2.56,0,0,0,65,16.9l-.63,4.56-.89-.12a2.18,2.18,0,0,0-2.38,1.49L51.25,54.27,33.63,51.85a2.82,2.82,0,0,0-3.18,2.4L29,65.11a2.82,2.82,0,0,0,2.41,3.17l33.79,4.65a2.19,2.19,0,0,0,2.38-1.49h0l12-38.13a.91.91,0,0,0-1.73-.54l-12,38.12a.38.38,0,0,1-.4.25L54.8,69.67a8.31,8.31,0,0,0,3.45-10.23.91.91,0,1,0-1.68.68A6.49,6.49,0,0,1,49.67,69l-7.94-1.09L43.5,55l7.94,1.09a6.39,6.39,0,0,1,2.82,1.1A.91.91,0,0,0,55.52,57a.9.9,0,0,0-.22-1.26A8.34,8.34,0,0,0,53,54.63l9.82-31.24a.39.39,0,0,1,.4-.26l16.37,2.25a.34.34,0,0,1,.26.18.33.33,0,0,1,0,.31h0L79,28.74a.91.91,0,0,0,1.73.55l.9-2.86a2.17,2.17,0,0,0-.23-1.84ZM35.51,67l-3.89-.54a1,1,0,0,1-.86-1.12L32.25,54.5a1,1,0,0,1,1.13-.86l3.89.54Zm4.42.61-2.62-.37,1.76-12.83,2.63.36ZM66.2,21.7l.63-4.56a.74.74,0,0,1,.94-.61l9.78,2.78a.76.76,0,0,1,.53.82l-.43,3.15Z"/><circle class="cls-2" cx="16.3" cy="55.91" r="1.21"/><circle class="cls-2" cx="21.12" cy="56.57" r="1.21"/><circle class="cls-2" cx="25.95" cy="57.23" r="1.21"/><circle class="cls-2" cx="15.68" cy="60.43" r="1.21"/><circle class="cls-2" cx="20.5" cy="61.09" r="1.21"/><circle class="cls-2" cx="25.33" cy="61.75" r="1.21"/></svg>