<svg id="Layer_1" data-name="Layer 1" xmlns="http://www.w3.org/2000/svg" viewBox="0 0 100 85"><defs><style>.cls-1{fill:#9e925e;}.cls-2{fill:#5e6368;}</style></defs><path class="cls-1" d="M53,41.55,50.85,33a.87.87,0,0,0-1.7,0L47,41.55a4.73,4.73,0,1,0,6,0Zm-3-4.73.94,3.74a5,5,0,0,0-1.88,0M50,48.17a3,3,0,1,1,3-3A3,3,0,0,1,50,48.17Z"/><path class="cls-2" d="M51.89,63.12q-.9,0-1.83,0a.87.87,0,0,0-.92.84.88.88,0,0,0,.84.92l1,0,1,0a.88.88,0,0,0-.09-1.76Z"/><path class="cls-2" d="M63.44,57.76a.88.88,0,0,0-1.21.27A12.34,12.34,0,0,1,55,62.68a.87.87,0,0,0-.64,1.06.88.88,0,0,0,.85.67l.21,0A13.93,13.93,0,0,0,63.72,59a.88.88,0,0,0-.28-1.21Z"/><path class="cls-2" d="M50,18.3A26.9,26.9,0,1,0,76.9,45.2,26.93,26.93,0,0,0,50,18.3Zm0,52A25.14,25.14,0,1,1,75.14,45.2,25.16,25.16,0,0,1,50,70.33Z"/><path class="cls-1" d="M50,23A22.19,22.19,0,0,0,30.24,55.24a3.41,3.41,0,0,0,6.28-.5c.85-2.64-1.87-3.64-1.87-9.54a15.59,15.59,0,0,1,.46-3.75A15.35,15.35,0,1,1,63.69,52.14a3.41,3.41,0,1,0,6.07,3.1A22.2,22.2,0,0,0,50,23ZM34.75,52.94a1.65,1.65,0,0,1-1.47,2.4c-1.31,0-1.8-1.22-2.6-3.55a20.05,20.05,0,0,1-1.07-5.71h3.3A16.86,16.86,0,0,0,34.75,52.94Zm-1.84-8.62h-3.3A20.3,20.3,0,0,1,35,31.41l2.33,2.33A17,17,0,0,0,32.91,44.32ZM49.12,28.11A17,17,0,0,0,38.55,32.5l-2.34-2.33a20.26,20.26,0,0,1,12.91-5.36Zm1.76,0v-3.3a20.3,20.3,0,0,1,12.91,5.36L61.46,32.5A17.07,17.07,0,0,0,50.88,28.11ZM62.7,33.74,65,31.41a20.3,20.3,0,0,1,5.36,12.91h-3.3A17.09,17.09,0,0,0,62.7,33.74Zm5.49,20.7h0a1.62,1.62,0,0,1-1.47.9,1.65,1.65,0,0,1-1.47-2.4,16.85,16.85,0,0,0,1.84-6.86h3.3A20.31,20.31,0,0,1,68.19,54.44Z"/></svg>