<svg id="Layer_1" data-name="Layer 1" xmlns="http://www.w3.org/2000/svg" viewBox="0 0 100 85"><defs><style>.cls-1{fill:#5e6368;}.cls-2{fill:#9e925e;}</style></defs><path class="cls-1" d="M81.29,34.63a4.87,4.87,0,0,1-.93,3.3,3.39,3.39,0,0,1-4.15,0,4.87,4.87,0,0,1-.93-3.3.74.74,0,0,0-1.48,0A6.17,6.17,0,0,0,75.14,39a4.81,4.81,0,0,0,6.29,0,6.12,6.12,0,0,0,1.34-4.32.74.74,0,0,0-1.48,0Z"/><path class="cls-1" d="M66.81,25.32V23.53a6.76,6.76,0,0,0-6.76-6.76H38.57a6.77,6.77,0,0,0-6.77,6.76v1.79h0v41h0v2.36a6.78,6.78,0,0,0,6.77,6.77H60.05a6.77,6.77,0,0,0,6.76-6.77V25.33Zm-33.26.87H65.07v9.33H33.55Zm5-7.68H60.05a5,5,0,0,1,5,5v.92H33.55v-.92a5,5,0,0,1,5-5ZM60.05,73.75H38.57a5,5,0,0,1-5-5v-1.5H62.11a.87.87,0,1,0,0-1.74H33.55V37.27H65.07V68.73a5,5,0,0,1-5,5Z"/><path class="cls-1" d="M45.35,22.5h7.91a.88.88,0,0,0,0-1.75H45.35a.88.88,0,0,0,0,1.75Z"/><path class="cls-1" d="M49.31,67.85a2.59,2.59,0,1,0,2.59,2.59A2.6,2.6,0,0,0,49.31,67.85Zm0,3.44a.85.85,0,1,1,.85-.85A.85.85,0,0,1,49.31,71.29Z"/><path class="cls-1" d="M62.18,32.73,58,30.4a.87.87,0,0,0-.8,0L53.61,32.1,49.9,28.66a.89.89,0,0,0-1.11-.07l-3.54,2.59-3.62-3.66a.87.87,0,0,0-1.21,0l-4.15,3.83a.89.89,0,0,0-.05,1.24.88.88,0,0,0,1.24,0L41,29.35l3.56,3.59a.88.88,0,0,0,1.13.09l3.57-2.6,3.62,3.35a.87.87,0,0,0,1,.14l3.74-1.78,3.76,2.11a.91.91,0,0,0,.42.11.87.87,0,0,0,.43-1.63Z"/><path class="cls-2" d="M43,47.59a.64.64,0,0,0-.57-.69H39.31v-.26c0-.46.62-.89,1.34-1.39,1-.73,2.33-1.64,2.33-3.13a2.46,2.46,0,0,0-2.6-2.43,2.3,2.3,0,0,0-2.49,2.18c0,.69.39.84.72.84.52,0,.8-.32.8-.63a.88.88,0,0,1,1-.94,1,1,0,0,1,1,1c0,.77-.85,1.39-1.74,2.05s-2,1.42-2,2.44v1.1c0,.33.37.57.71.57h4a.67.67,0,0,0,.57-.72Z"/><path class="cls-2" d="M46.29,48.38A2.47,2.47,0,0,0,49,45.68V42.39a2.46,2.46,0,0,0-2.72-2.7,2.44,2.44,0,0,0-2.71,2.7v3.29A2.44,2.44,0,0,0,46.29,48.38Zm-1.16-6c0-.87.38-1.29,1.16-1.29s1.17.44,1.17,1.29v3.29c0,.85-.4,1.28-1.17,1.28s-1.16-.42-1.16-1.28Z"/><path class="cls-2" d="M55.24,42.39a2.46,2.46,0,0,0-2.72-2.7,2.44,2.44,0,0,0-2.71,2.7v3.29a2.44,2.44,0,0,0,2.71,2.7,2.47,2.47,0,0,0,2.72-2.7Zm-1.55,3.29c0,.85-.39,1.28-1.17,1.28s-1.16-.42-1.16-1.28V42.39c0-.87.38-1.29,1.16-1.29s1.17.44,1.17,1.29Z"/><path class="cls-2" d="M58.75,39.69A2.44,2.44,0,0,0,56,42.39v3.29a2.44,2.44,0,0,0,2.71,2.7,2.47,2.47,0,0,0,2.72-2.7V42.39a2.46,2.46,0,0,0-2.72-2.7Zm1.17,6c0,.85-.39,1.28-1.17,1.28s-1.16-.42-1.16-1.28V42.39c0-.87.38-1.29,1.16-1.29s1.17.44,1.17,1.29Z"/><path class="cls-2" d="M42.09,52a1.34,1.34,0,0,1,1.54,1.4c0,.2.12.68.95.68.67,0,1-.29,1-1,0-1.67-1.44-2.83-3.5-2.83a3.13,3.13,0,0,0-3.43,3.44V58A3.12,3.12,0,0,0,42,61.42c2.06,0,3.51-1.19,3.51-2.91,0-.7-.28-1-1-1s-.91.37-.93.67c-.07.76-.24,1.5-1.51,1.5-1.09,0-1.61-.56-1.61-1.72V53.72c0-1.15.51-1.71,1.58-1.71Z"/><path class="cls-2" d="M51.11,50.84A1.15,1.15,0,0,0,50,50.19a1.16,1.16,0,0,0-1.15.65l-2.91,9.49a.68.68,0,0,0,0,.19c0,.48.6.82,1.14.82a.66.66,0,0,0,.71-.45l.56-2h3.36l.56,2a.66.66,0,0,0,.7.45c.54,0,1.15-.35,1.15-.82a.84.84,0,0,0,0-.19Zm-2.39,6.5L50,53.12l1.23,4.22Z"/><path class="cls-2" d="M60.39,59.61H56.76V51c0-.4-.37-.67-.95-.67s-1,.27-1,.67v9.7a.77.77,0,0,0,.86.69h4.67c.43,0,.65-.44.65-.87s-.27-.86-.65-.86Z"/><path class="cls-1" d="M25.59,22.24a.74.74,0,0,0-.74.74V33.32h-2V23a.74.74,0,1,0-1.48,0V33.32H19.5V23A.74.74,0,1,0,18,23V33.32h-2V23a.74.74,0,1,0-1.48,0V38.19A4.41,4.41,0,0,0,16.8,42l1.23.7v4.54a3.2,3.2,0,0,0-.78,2.08v.76a1.9,1.9,0,0,0,.43,1.21,2,2,0,0,0-.43,1.22V64.08a.74.74,0,1,0,1.48,0V52.52a.49.49,0,0,1,.48-.48h2.5a.48.48,0,0,1,.47.48V69.47a1.73,1.73,0,1,1-3.45,0v-2a.74.74,0,1,0-1.48,0v2a3.21,3.21,0,1,0,6.41,0V52.52a2,2,0,0,0-.42-1.22,2,2,0,0,0,.42-1.21v-.76a3.24,3.24,0,0,0-.77-2.08V42.71l1.23-.7a4.41,4.41,0,0,0,2.21-3.81V23a.74.74,0,0,0-.74-.74Zm-.74,16a2.94,2.94,0,0,1-1.47,2.53l-1.59.92a.74.74,0,0,0-.38.64v5.26a.76.76,0,0,0,.23.53,1.69,1.69,0,0,1,.54,1.25v.76a.47.47,0,0,1-.47.47h-2.5a.48.48,0,0,1-.48-.47v-.76a1.69,1.69,0,0,1,.54-1.25.73.73,0,0,0,.23-.54V42.29a.73.73,0,0,0-.37-.64l-1.59-.92a2.92,2.92,0,0,1-1.47-2.54V34.8h8.78v3.4Z"/><path class="cls-1" d="M81.29,34.63a4.87,4.87,0,0,1-.93,3.3,3.39,3.39,0,0,1-4.15,0,4.87,4.87,0,0,1-.93-3.3.74.74,0,0,0-1.48,0A6.17,6.17,0,0,0,75.14,39a4.81,4.81,0,0,0,6.29,0,6.12,6.12,0,0,0,1.34-4.32.74.74,0,0,0-1.48,0Z"/><path class="cls-1" d="M78.29,22.24c-2,0-3.93,1.49-5.39,4.21a17.9,17.9,0,0,0-2.06,8.18c0,4.21,1.82,7.12,5,8.1v4.52a3.24,3.24,0,0,0-.77,2.08v.76a1.9,1.9,0,0,0,.43,1.21,2,2,0,0,0-.43,1.22V69.47a3.21,3.21,0,1,0,6.41,0V58.52a.74.74,0,1,0-1.48,0V69.47a1.73,1.73,0,1,1-3.45,0V52.52A.48.48,0,0,1,77,52h2.5a.48.48,0,0,1,.47.48v2.59a.74.74,0,0,0,1.48,0V52.52a2,2,0,0,0-.42-1.22,2,2,0,0,0,.42-1.21v-.76a3.24,3.24,0,0,0-.77-2.08V42.73c3.19-1,5-3.9,5-8.1a18,18,0,0,0-2-8.18c-1.47-2.72-3.38-4.21-5.39-4.21Zm1.53,19.2a.73.73,0,0,0-.58.72v5.39a.76.76,0,0,0,.23.53A1.69,1.69,0,0,1,80,49.33v.76a.47.47,0,0,1-.47.47H77a.47.47,0,0,1-.48-.47v-.76a1.69,1.69,0,0,1,.54-1.25.73.73,0,0,0,.23-.54V42.16a.75.75,0,0,0-.58-.72c-2.85-.64-4.43-3-4.43-6.81a16.39,16.39,0,0,1,1.88-7.48c1.18-2.18,2.67-3.44,4.09-3.44S81.2,25,82.38,27.15a16.5,16.5,0,0,1,1.87,7.48C84.25,38.38,82.68,40.8,79.82,41.44Z"/></svg>