<svg id="Layer_1" data-name="Layer 1" xmlns="http://www.w3.org/2000/svg" viewBox="0 0 100 85"><defs><style>.cls-1,.cls-2{fill:#5e6368;stroke:#5e6368;stroke-miterlimit:10;}.cls-1{stroke-width:0.5px;}.cls-3{fill:#9e925e;}.cls-4{fill:#fff;}</style></defs><path class="cls-1" d="M50,49.7a14.23,14.23,0,0,0-10.61,4.72A1.09,1.09,0,0,0,41,55.87a12.1,12.1,0,0,1,18,0,1.09,1.09,0,0,0,1.54.08,1.08,1.08,0,0,0,.08-1.53A14.23,14.23,0,0,0,50,49.7Z"/><path class="cls-1" d="M50,19.2a25.05,25.05,0,1,0,25,25.05A25.08,25.08,0,0,0,50,19.2Zm0,47.92A22.87,22.87,0,1,1,72.87,44.25,22.9,22.9,0,0,1,50,67.12Z"/><path class="cls-2" d="M58.57,40.15a5.49,5.49,0,0,0,4.09-1.81.43.43,0,0,0,0-.6.42.42,0,0,0-.28-.1.38.38,0,0,0-.31.14,4.69,4.69,0,0,1-6.93,0,.42.42,0,0,0-.59,0,.43.43,0,0,0,0,.6A5.52,5.52,0,0,0,58.57,40.15Z"/><path class="cls-2" d="M41.32,40.15a5.49,5.49,0,0,0,4.09-1.81.44.44,0,0,0,0-.6.42.42,0,0,0-.28-.1.41.41,0,0,0-.32.14,4.68,4.68,0,0,1-6.92,0,.42.42,0,0,0-.59,0,.43.43,0,0,0,0,.6A5.52,5.52,0,0,0,41.32,40.15Z"/><path class="cls-3" d="M67.74,16.06a1.31,1.31,0,0,1,.5.49c1.07,1.64,2.17,3.26,3.22,4.91a22.14,22.14,0,0,1,2,3.85A6.54,6.54,0,0,1,74,27.4a6.24,6.24,0,0,1-.31,2.11,6.44,6.44,0,0,1-2.49,3.33,6.25,6.25,0,0,1-2.72,1.07,6.47,6.47,0,0,1-6.67-3.45,6.24,6.24,0,0,1-.7-2.87,5.08,5.08,0,0,1,.3-1.68,17.57,17.57,0,0,1,1.43-3.08c1.1-1.93,2.35-3.76,3.6-5.6.16-.23.32-.47.47-.71a1,1,0,0,1,.51-.46Zm-.17,1.77-.06.08c-1,1.6-2.1,3.2-3.13,4.82a17.46,17.46,0,0,0-1.7,3.37,4.38,4.38,0,0,0-.15,2.63,5,5,0,0,0,2,3,5.13,5.13,0,0,0,3.36,1,5.11,5.11,0,0,0,4.65-3.56,4.06,4.06,0,0,0,.05-2.71,20,20,0,0,0-.83-2,44.22,44.22,0,0,0-2.8-4.61C68.47,19.18,68,18.51,67.57,17.83Z"/><path class="cls-4" d="M67.57,17.83c.46.68.9,1.35,1.34,2a44.22,44.22,0,0,1,2.8,4.61,20,20,0,0,1,.83,2,4.06,4.06,0,0,1-.05,2.71,5.11,5.11,0,0,1-4.65,3.56,5.13,5.13,0,0,1-3.36-1,5,5,0,0,1-2-3,4.38,4.38,0,0,1,.15-2.63,17.46,17.46,0,0,1,1.7-3.37c1-1.62,2.09-3.22,3.13-4.82Zm1.87,13.62a1.75,1.75,0,0,0,.32-.12,2.39,2.39,0,0,0,.41-.26,4.32,4.32,0,0,0,1.76-3.31.64.64,0,0,0-.58-.67.62.62,0,0,0-.67.57,3.11,3.11,0,0,1-.89,2,6.92,6.92,0,0,1-.74.57.64.64,0,0,0-.24.72A.71.71,0,0,0,69.44,31.45Z"/><path class="cls-3" d="M69.44,31.45a.71.71,0,0,1-.63-.47.64.64,0,0,1,.24-.72,6.92,6.92,0,0,0,.74-.57,3.11,3.11,0,0,0,.89-2,.62.62,0,0,1,.67-.57.64.64,0,0,1,.58.67,4.32,4.32,0,0,1-1.76,3.31,2.39,2.39,0,0,1-.41.26A1.75,1.75,0,0,1,69.44,31.45Z"/></svg>