<svg id="Layer_1" data-name="Layer 1" xmlns="http://www.w3.org/2000/svg" viewBox="0 0 100 85"><defs><style>.cls-1{fill:#5e6368;}.cls-2{fill:#9e925e;}.cls-3{fill:none;stroke:#5e6368;stroke-linecap:round;stroke-miterlimit:10;stroke-width:2px;}</style></defs><path class="cls-1" d="M46.1,33.47A11.66,11.66,0,0,0,49,32.7.94.94,0,1,0,48.23,31a9.84,9.84,0,0,1-2.36.62A.94.94,0,0,0,46,33.48Z"/><path class="cls-1" d="M57.08,32.7a11.66,11.66,0,0,0,2.88.77h.12a.94.94,0,0,0,.93-.83,1,1,0,0,0-.82-1A10,10,0,0,1,57.83,31a.94.94,0,1,0-.75,1.72Z"/><path class="cls-2" d="M24.48,43.92a1.17,1.17,0,0,1-.94-.49l-5.09-6.66a1.4,1.4,0,0,1-.17-1.42,1.2,1.2,0,0,1,1.1-.77h1.56l0-9.82a1.28,1.28,0,0,1,1.22-1.33l4.55,0a1.28,1.28,0,0,1,1.23,1.32l0,9.82H29.5a1.22,1.22,0,0,1,1.11.76,1.4,1.4,0,0,1-.16,1.42l-5,6.71a1.19,1.19,0,0,1-.94.49Zm-5.1-8.07s0,0-.05,0a.06.06,0,0,0,0,.06l5.09,6.67a0,0,0,0,0,0,0,.06.06,0,0,0,.05,0l5-6.71a.05.05,0,0,0,0-.07.05.05,0,0,0,0,0H27.36a.61.61,0,0,1-.58-.64l-.05-10.45a.05.05,0,0,0-.06-.06H22.12a.07.07,0,0,0-.06.07l.05,10.45a.61.61,0,0,1-.58.64Z"/><path class="cls-2" d="M82.31,51.81h-4.6a1.29,1.29,0,0,1-1.24-1.34V40.65H74.89a1.23,1.23,0,0,1-1.12-.76,1.42,1.42,0,0,1,.17-1.42l5.12-6.69a1.18,1.18,0,0,1,1.9,0l5.12,6.69a1.42,1.42,0,0,1,.17,1.42,1.23,1.23,0,0,1-1.12.76H83.55v9.82a1.3,1.3,0,0,1-1.24,1.34ZM80,32.57a.06.06,0,0,0-.05,0l-5.12,6.69a.08.08,0,0,0,0,.07,0,0,0,0,0,0,0h2.17a.62.62,0,0,1,.59.64V50.47s0,.07.06.07h4.6a.07.07,0,0,0,.06-.07V40a.62.62,0,0,1,.59-.64h2.17a0,0,0,0,0,.05,0,.05.05,0,0,0,0-.07l-5.12-6.69S80,32.57,80,32.57Z"/><path class="cls-1" d="M50.55,40.13a16,16,0,0,1,4.83,0,.94.94,0,1,0-.48-1.82,19.27,19.27,0,0,1-4.29,0,.94.94,0,0,0-.17,1.87Z"/><path class="cls-3" d="M41.36,31.5V29.15c0-6.76,4.9-12.24,11.52-12.24h0a12.12,12.12,0,0,1,12,12.24V31.5"/><path class="cls-3" d="M64.74,30.6c1.67,0,2.56,1.22,2.56,2.86h0a3,3,0,0,1-3,3"/><path class="cls-3" d="M41.54,36.77a2.91,2.91,0,0,1-3-2.86h0c0-1.65.89-3,2.57-3"/><path class="cls-1" d="M40.72,36.67a12.93,12.93,0,0,0,4.49,6.63,18.56,18.56,0,0,0-12,12.47c-5.16.87-11.06,6.42-12.42,7.76h-2a1,1,0,0,0-.9,1.21,6.56,6.56,0,0,0,5.81,4.66,1.52,1.52,0,0,1,1.42,1.51.93.93,0,0,0,.91,1H72.59a1,1,0,0,0,.94-.94v-10a18.49,18.49,0,0,0-3.4-10.71,1,1,0,0,0-1.2-.33.94.94,0,0,0-.36,1.39,16.59,16.59,0,0,1,3.08,9.65v3.36H64.54V59.88a1,1,0,0,0-.78-1,.94.94,0,0,0-1.1.92V70H44.05a1.52,1.52,0,0,1,1.1-.58A6.56,6.56,0,0,0,51,64.74a1,1,0,0,0-.9-1.21H48.33c-1.43-1.4-7.77-7.37-13.08-7.85A16.75,16.75,0,0,1,46.53,44.85a6.55,6.55,0,0,0,13,0,16.78,16.78,0,0,1,6.64,3.7,1,1,0,0,0,1.25.09.94.94,0,0,0,.06-1.44,18.57,18.57,0,0,0-6.63-3.9,12.93,12.93,0,0,0,4.49-6.63L65.82,30v-.16a4.65,4.65,0,0,0-1.49-3.43c-2.13-2-5-.77-6-2.15a1.65,1.65,0,0,0-1-.68,1.58,1.58,0,0,0-1.51.48C51,29.41,45.05,26.43,42.51,26.93a2.82,2.82,0,0,0-2.27,2.76V30M53,48.74a4.67,4.67,0,0,1-4.54-3.6,12.83,12.83,0,0,0,9.08,0A4.67,4.67,0,0,1,53,48.74ZM42.12,33.18V29.69a.91.91,0,0,1,.74-.91c2.66-.54,8.8,1.89,14-3.63,1.11,1.62,4,.7,6.18,2.67a2.8,2.8,0,0,1,.88,2.05v3A11.08,11.08,0,0,1,53.45,44.08,10.91,10.91,0,0,1,42.12,33.18ZM42,70H26.92a3.43,3.43,0,0,0-3-2.46,4.63,4.63,0,0,1-3.58-2.11H30a.94.94,0,0,0,0-1.88H23.6c2.5-2.23,7.29-6,11-6s8.48,3.77,11,6H33.79a.94.94,0,1,0,0,1.88H48.6A4.63,4.63,0,0,1,45,67.52,3.41,3.41,0,0,0,42,70Zm29.67,0H64.54V66.15h7.11Z"/></svg>