<svg id="Layer_1" data-name="Layer 1" xmlns="http://www.w3.org/2000/svg" viewBox="0 0 100 85"><defs><style>.cls-1{fill:#5e6368;}.cls-2{fill:#9e925e;}</style></defs><path class="cls-1" d="M54.87,68.55H76.2A1.5,1.5,0,0,0,77.7,67V26.24a1.5,1.5,0,0,0-1.5-1.49H68.14a.87.87,0,0,0-.87.87v.17a14.83,14.83,0,0,1-29.66,0v-.17a.87.87,0,0,0-.87-.87H28.68a1.5,1.5,0,0,0-1.5,1.49V67a1.5,1.5,0,0,0,1.5,1.5H50.86a.87.87,0,1,0,0-1.74H28.92V26.49h7a16.58,16.58,0,0,0,33.12,0h7V66.8H54.87a.87.87,0,1,0,0,1.74Z"/><path class="cls-2" d="M53.47,23a3,3,0,0,0-1.42-.16l-1.16-2.54a.87.87,0,1,0-1.58.73l1.16,2.54a3,3,0,0,0,.94,5,3.06,3.06,0,0,0,1,.18,2.93,2.93,0,0,0,1.23-.27,3,3,0,0,0-.2-5.47Zm.12,3.21a1.25,1.25,0,0,1-.64.68,1.22,1.22,0,1,1-.08-2.26,1.19,1.19,0,0,1,.68.64A1.23,1.23,0,0,1,53.59,26.22Z"/><path class="cls-1" d="M81.23,44.9A.87.87,0,0,0,82.1,44V25.39a5.05,5.05,0,0,0-5-5.05H63.32a12.21,12.21,0,0,0-2.2-3.07L61,17.18a.27.27,0,0,0-.08-.07,12.14,12.14,0,0,0-17,0l-.1.08-.08.1a12.12,12.12,0,0,0-2.19,3.06H27.83a5.06,5.06,0,0,0-5,5.05v42.5a5,5,0,0,0,5,5H77.06a5,5,0,0,0,5-5V48a.87.87,0,1,0-1.74,0V67.89a3.31,3.31,0,0,1-3.3,3.31H27.83a3.31,3.31,0,0,1-3.31-3.31V25.39a3.31,3.31,0,0,1,3.31-3.31h13a12.31,12.31,0,0,0-.58,3.71,12.17,12.17,0,0,0,3.49,8.52l.07.08.09.08a12.14,12.14,0,0,0,17,0,.23.23,0,0,0,.07-.07l.07-.07a12.14,12.14,0,0,0,3.5-8.53A12,12,0,0,0,64,22.08h13a3.31,3.31,0,0,1,3.3,3.31V44a.87.87,0,0,0,.87.87ZM60.4,32.52l-.85-.85a.87.87,0,0,0-1.23,1.23l.85.85a10.38,10.38,0,0,1-5.86,2.43V35a.87.87,0,1,0-1.74,0v1.21a10.38,10.38,0,0,1-5.86-2.43l.85-.85a.88.88,0,0,0,0-1.23.87.87,0,0,0-1.23,0l-.86.85a10.38,10.38,0,0,1-2.43-5.86h1.21a.87.87,0,0,0,0-1.74H42.05a10.35,10.35,0,0,1,2.43-5.86l.86.85a.87.87,0,0,0,.61.26.85.85,0,0,0,.61-.26.87.87,0,0,0,0-1.23l-.85-.85a10.39,10.39,0,0,1,5.86-2.44v1.22a.87.87,0,0,0,1.74,0V15.39a10.39,10.39,0,0,1,5.86,2.44l-.85.85a.87.87,0,1,0,1.23,1.23l.85-.85a10.36,10.36,0,0,1,2.44,5.86H61.62a.87.87,0,1,0,0,1.74h1.22a10.39,10.39,0,0,1-2.44,5.86Z"/></svg>