<svg id="Layer_1" data-name="Layer 1" xmlns="http://www.w3.org/2000/svg" viewBox="0 0 1080 1080"><defs><style>.cls-1{fill:#5f6367;}.cls-2{fill:#9c9164;}.cls-3{fill:none;}</style></defs><g id="_6s46Xe.tif" data-name="6s46Xe.tif"><path class="cls-1" d="M637.24,206.84a11.43,11.43,0,0,0,2.2,1.18c22.23,6.31,34.33,22.1,34.37,45.29q.11,65.38,0,130.77v6.11c8.88-1,17.35-2.68,25.82-2.61,10.57.09,19.73,4.9,27.17,12.35q68.52,68.55,136.91,137.22c22.23,22.23,35.35,49,40.16,79.88.89,5.72,2.74,8.35,9.46,9.37,24.23,3.67,35.14,33,20.1,52.5a51,51,0,0,1-4.36,4.82Q867.48,745.4,805.83,807c-18.44,18.36-48,11.74-55.64-12.39a34.46,34.46,0,0,1-1.3-14c.54-4.61-.49-7-4.59-9.19-22.24-11.87-45.51-14.4-70.47-8.41,0,11.38,0,22.84,0,34.3,0,11.06.18,22.12-.11,33.17a44.13,44.13,0,0,1-41.89,42.6c-2.6.13-5.2.08-7.8.08H330c-33.39,0-43-6.26-55.8-36.44V243.28c2-4.7,3.54-9.64,6-14.07,6.92-12.49,18.25-19,31.73-22.37ZM652.7,764.15c-2.84-.17-3.89-.35-4.92-.28-26.58,1.85-48.95-8.1-68-25.61q-25.6-23.52-49.55-48.84c-5.6-5.94-9.61-13.94-12.63-21.67-6.73-17.25-4.65-34.43,2.79-51.16,4.58-10.29,4.43-10.33-3.61-18.37L412.38,493.76c-10.58-10.59-21.4-20.94-31.64-31.84C359.38,439.17,366,403.5,393.67,391c17.47-7.91,37.1-4.33,51.5,9.94,28,27.78,55.88,55.75,83.82,83.63,1.62,1.61,3.32,3.13,5.14,4.84,11.06-26.67,29.75-33.72,53.27-31.05,14.34-37.3,27.26-44.77,63.91-36.72a31.48,31.48,0,0,0,.33-3.15q0-83.61-.06-167.22c0-12.77-9.45-21.94-22.36-22.17-11.49-.21-23-.29-34.47.11a13.42,13.42,0,0,0-8.21,3.68c-8.27,8.28-16.13,17-24.12,25.54a45.3,45.3,0,0,1-34.69,15q-53.67-.17-107.34,0c-13.84,0-25.28-5-34.66-15.08-7.83-8.41-15.52-17-23.72-25a15.62,15.62,0,0,0-9.31-4.12c-9.72-.53-19.5-.19-29.26-.19-18.86,0-27.05,8.12-27.05,26.82V768.57c0,18.81,8,26.73,27,26.73H624.6c2.16,0,4.34.06,6.5-.1,8.24-.61,14.88-4.47,17.88-12C651.22,777.53,651.43,771.09,652.7,764.15Zm110.69-7.21c1.46-2,2.63-4.19,4.3-5.86C802,716.68,835.86,681.83,871,648.27c10.8-10.33,14-19.23,10.13-33.93-5.71-21.45-13.58-41.18-29.26-57.05q-70.2-71-140.79-141.65a22.35,22.35,0,0,0-32.13.22c-8.42,8.86-7.95,22.07,1.27,31.54,7.42,7.61,15.18,14.89,22.47,22.61,6.2,6.56,4.23,15.68-3.74,18.57-5.16,1.87-9.24-.21-12.86-3.85q-17.91-18-35.9-35.87c-10.22-10.13-23.8-10.72-32.93-1.56s-8.56,22.76,1.55,33c9.16,9.24,18.59,18.22,27.45,27.74,2.43,2.6,4.8,7,4.34,10.08-.49,3.38-3.74,7.18-6.84,9.15-4.32,2.76-8.78.56-12.27-2.92-12.29-12.24-24.5-24.56-36.83-36.77-10-9.91-24-10.46-33.08-1.45s-8.37,22.62,1.83,32.91c9,9.08,18.1,18.09,27.12,27.16,6.44,6.47,7.26,13.23,2.25,18.14s-11.4,4-18.09-2.57l-2.31-2.29q-69.94-69.92-139.9-139.8a51.73,51.73,0,0,0-6.77-6.06c-14.15-9.87-33.1-1.85-35.23,14.95-1.07,8.48,3,14.88,8.8,20.69q95,95,189.92,190.08c8.05,8.07,9.29,14.07,4,19.49s-11.46,4.45-19.47-3.56q-13.8-13.79-27.61-27.59c-1.31-1.29-2.77-2.43-4.41-3.86-9,18.82-8.24,36.5,5.59,51.41,15.61,16.82,32.31,32.71,49.3,48.16,14.26,13,31.28,20.09,51.14,18.33,14-1.24,28-2.78,42.06-3.78C715.63,736.06,739.65,742,763.39,756.94Zm-467,54.38v11.84c0,20.07,7.8,27.82,28,27.82H624.15c2.38,0,4.78.1,7.15-.12,10.42-1,19.14-8.9,20.07-19,.59-6.39.11-12.87.11-20.41-11.81,7.3-24.29,6-36.57,6q-142.72,0-285.46,0C318.4,817.54,307.33,818,296.39,811.32Zm485-14.45c4.23-3,8-5,10.94-7.85q59.9-59.62,119.57-119.47a39.18,39.18,0,0,0,4-4.28A10.69,10.69,0,0,0,915,651a11.26,11.26,0,0,0-14.8-1,37.32,37.32,0,0,0-3.77,3.57q-60,60-120,120c-1.53,1.52-3.76,3-4.15,4.86-.76,3.58-1.63,7.94-.22,10.93S777.64,794,781.36,796.87ZM388.84,229.3c5.53,5.83,9.56,11.41,14.86,15.26,4.46,3.24,10.35,6.25,15.65,6.33,36.6.54,73.21.4,109.81.12,4.08,0,8.94-1.32,12.05-3.79,6.28-5,11.61-11.21,18.34-17.92Z"/><path class="cls-2" d="M429.63,640q0,36.39,0,72.77a37.49,37.49,0,0,1-.42,7.12c-1,5.34-4.59,8.35-9.9,8.68-5.63.36-9.63-2.4-11.17-7.9a29.51,29.51,0,0,1-.72-7.71q0-73.1,0-146.21a28.26,28.26,0,0,1,.74-7.7c1.6-5.5,5.63-8.1,11.28-7.71,5.38.38,8.8,3.42,9.79,8.76a38.37,38.37,0,0,1,.39,7.12Q429.66,603.64,429.63,640Z"/><path class="cls-2" d="M385.15,579.23c0,19.3,0,38.6,0,57.9,0,9-3.91,13.75-11.05,13.72S363,645.93,363,637q-.06-58.21,0-116.43a27,27,0,0,1,.1-3.25c.79-6.37,5.28-10.61,11.13-10.59,6.12,0,10.81,4.56,10.87,11.34.16,20.38.06,40.76.06,61.14Z"/><path class="cls-1" d="M329.69,375c-3.62-2.72-7.75-4.37-9.21-7.33s-.73-7.35-.05-10.94c.34-1.82,2.64-3.31,4.17-4.84q30.75-30.84,61.56-61.63a24.35,24.35,0,0,1,3.83-3.51c4.69-3,9.4-3.09,13.76.67a10.76,10.76,0,0,1,1.92,14.14,26.93,26.93,0,0,1-3.8,4.41q-31,31.05-62.13,62C337.11,370.52,333.61,372.25,329.69,375Z"/><path class="cls-1" d="M353.16,294.19c-1.56,3.6-2.08,6.36-3.67,8.18a138.39,138.39,0,0,1-12.78,12.85,10.87,10.87,0,0,1-14.73-.58c-4.11-4.08-4.71-10.12-.79-14.66s8-9.32,12.91-12.65a14.26,14.26,0,0,1,11.3-1.47C348.6,287.05,350.66,291.33,353.16,294.19Z"/><path class="cls-2" d="M385.07,690.47c.06,10.82-3.31,15.86-10.67,16s-11.46-5.36-11.45-16.16a49.61,49.61,0,0,1,.21-7.12c.93-6.24,5.83-10.27,11.67-9.87,5.67.37,9.74,4.55,10.21,10.62C385.21,686.13,385.07,688.3,385.07,690.47Z"/></g><g id="_6s46Xe.tif-2" data-name="6s46Xe.tif"><path class="cls-2" d="M913.35,626.39c-6.72-1-8.57-3.65-9.46-9.36-4.81-30.91-17.93-57.65-40.16-79.88Q795.2,468.62,726.82,399.92c-11.15-11.15-29.7-16.63-44.72-11.46-7.51,2.6-13.53,5.25-18.58,11.75a40.42,40.42,0,0,0-8,19.86c-.08.66-.24,1.46-.87,1.69a1.78,1.78,0,0,1-1,0l-2.3-.48c0,.11,0,.23,0,.34-36.65-8-49.57-.58-63.91,36.72-23.52-2.66-42.21,4.38-53.27,31.06-1.82-1.71-3.52-3.23-5.14-4.85-27.94-27.88-55.79-55.85-83.83-83.63-14.39-14.26-34-17.85-51.49-9.93-27.66,12.53-34.29,48.2-12.93,70.94,10.24,10.91,21.06,21.26,31.64,31.84q52.2,52.25,104.4,104.47c8,8,8.19,8.08,3.61,18.36-7.45,16.74-9.53,33.92-2.79,51.16,3,7.74,7,15.74,12.63,21.68q23.88,25.27,49.55,48.84c12.7,11.68,27.93,20.69,45,24.16,20.28,4.14,42,.7,62.27-1.8A96.29,96.29,0,0,1,744.3,771.4c4.1,2.19,5.13,4.59,4.59,9.19a34.52,34.52,0,0,0,1.3,14c7.62,24.13,37.2,30.74,55.64,12.38q61.78-61.49,123.26-123.28a52.36,52.36,0,0,0,4.36-4.83C948.49,659.44,937.58,630.06,913.35,626.39Zm-150,130.55c-23.74-14.9-47.76-20.88-73.63-19-14,1-28,2.53-42.06,3.78-19.86,1.76-36.88-5.36-51.15-18.34-17-15.45-33.68-31.34-49.29-48.16-13.83-14.9-14.58-32.59-5.59-51.41,1.64,1.43,3.1,2.57,4.41,3.87q13.83,13.77,27.61,27.59c8,8,14,9.11,19.47,3.55,5.28-5.41,4.05-11.42-4-19.48q-94.93-95.07-189.91-190.08c-5.82-5.82-9.88-12.22-8.8-20.69,2.13-16.81,21.08-24.83,35.23-14.95a50.94,50.94,0,0,1,6.77,6.05q70,69.89,139.9,139.8c.76.77,1.53,1.53,2.31,2.29,6.69,6.57,13.09,7.49,18.09,2.58s4.19-11.67-2.25-18.14c-9-9.07-18.11-18.08-27.12-27.17-10.2-10.29-10.93-23.85-1.83-32.91s23.09-8.45,33.08,1.46c12.32,12.21,24.54,24.52,36.83,36.77,3.49,3.47,7.95,5.67,12.27,2.92,3.1-2,6.35-5.77,6.84-9.15.46-3.13-1.91-7.48-4.34-10.08-8.86-9.52-18.29-18.5-27.45-27.75-10.11-10.2-10.71-23.77-1.55-33s22.71-8.56,32.93,1.57q18,17.86,35.9,35.87c3.62,3.63,7.7,5.72,12.85,3.85,8-2.89,10-12,3.75-18.58-7.29-7.72-15-15-22.47-22.61-9.23-9.46-9.69-22.68-1.27-31.54a22.35,22.35,0,0,1,32.13-.21q70.58,70.64,140.79,141.65c15.68,15.87,23.54,35.6,29.26,57,3.92,14.71.67,23.61-10.13,33.94-35.1,33.56-69,68.41-103.27,102.81C766,752.75,764.85,754.91,763.39,756.94Zm152.46-91.68a39.18,39.18,0,0,1-4,4.28Q852.13,729.32,792.3,789c-2.9,2.89-6.71,4.86-10.94,7.85-3.72-2.84-7.86-4.5-9.24-7.46s-.54-7.36.22-10.94c.39-1.83,2.62-3.33,4.15-4.86q60-60,120-120a38.4,38.4,0,0,1,3.78-3.56,11.25,11.25,0,0,1,14.8,1A10.68,10.68,0,0,1,915.85,665.26Z"/></g><path class="cls-3" d="M648.1,420.57l3.25.69,2.3.48a1.78,1.78,0,0,0,1,0c.63-.23.79-1,.87-1.69a41.53,41.53,0,0,1,18.86-29.94c.55-.36,1.11-.69,1.68-1"/><path class="cls-3" d="M685.25,764.82c-2.93-1.76-6.45-2.1-9.88-2.18l-1.06,0A170.57,170.57,0,0,0,650.73,764l-1.56.2"/></svg>