<svg id="Layer_1" data-name="Layer 1" xmlns="http://www.w3.org/2000/svg" viewBox="0 0 100 85"><defs><style>.cls-1{fill:#5e6368;}.cls-2{fill:#9e925e;}</style></defs><path class="cls-1" d="M50.55,44.77a3.17,3.17,0,0,0-3.16-3.16"/><path class="cls-2" d="M55.62,15.64a1.16,1.16,0,0,0-.44,2.27,27.24,27.24,0,1,1-11.3.2,1.17,1.17,0,0,0,.87-1.39,1.14,1.14,0,0,0-1.38-.86,29.53,29.53,0,0,0-22.92,28.8,29.55,29.55,0,1,0,35.17-29Z"/><path class="cls-1" d="M66.78,27.49a1,1,0,0,0-.18-.18c-.44-.42-.89-.82-1.36-1.21a24,24,0,1,0,8.4,22.8,1.16,1.16,0,0,0-2.28-.4,21.74,21.74,0,1,1-8-20.89,6.15,6.15,0,0,0-3.64,5.6,3.84,3.84,0,0,1-3.84,3.84A6.16,6.16,0,0,0,50,41.38a4.19,4.19,0,0,0-1.42-.74A6.87,6.87,0,0,1,49,39.32a8.91,8.91,0,0,0,.59-2A6.48,6.48,0,0,0,48.12,32a8.87,8.87,0,0,0-6.52-3.1,8.19,8.19,0,0,0-7.46,11.84,2.46,2.46,0,0,1,.14,1.93,15.54,15.54,0,0,0,14.43,20.6h.09a15.66,15.66,0,0,0,2.37-.18,9.39,9.39,0,0,0,7.49-6.41,3.36,3.36,0,0,0,1.6.4h0a3.51,3.51,0,0,0,3.43-3.52v-3a5.78,5.78,0,0,0-6.8-5.68,3.45,3.45,0,0,0-3.48-3.08,3.45,3.45,0,0,0-1.2.22,3.84,3.84,0,0,1,3.66-2.69,6.16,6.16,0,0,0,6.15-6.15,3.84,3.84,0,0,1,3.36-3.8A21.52,21.52,0,0,1,71.24,40.2a1.16,1.16,0,1,0,2.26-.48A24.06,24.06,0,0,0,66.78,27.49ZM49.38,44.54l-.74.76-3.17-1.06L46,44a4.79,4.79,0,0,0,1.84-1.21A2,2,0,0,1,49.38,44.54Zm4.1-.4a1.16,1.16,0,0,1,.84,2l-.1.09a5.39,5.39,0,0,0-.74.77l-1.73,1.77a4.2,4.2,0,0,1-3,1.25,4.07,4.07,0,0,1-1.3-.21l-4.74-1.58A1.15,1.15,0,1,0,42,50.38L46.72,52a6.35,6.35,0,0,0,2,.33,6.54,6.54,0,0,0,3.43-1v2.74a1.16,1.16,0,0,0,2.31,0V50.59a3.48,3.48,0,0,1,.71-2.1l.6-.6a3.17,3.17,0,0,1,.7-.44,3.46,3.46,0,0,1,4.92,3.14v3a1.18,1.18,0,0,1-1.14,1.21h0a1.14,1.14,0,0,1-1.14-1V51.47a1.16,1.16,0,0,0-2.31,0V53.8a7.07,7.07,0,0,1-6,7A13.08,13.08,0,0,1,35.7,48.07a12.9,12.9,0,0,1,.76-4.61,4.83,4.83,0,0,0-.26-3.74,5.89,5.89,0,0,1,5.26-8.5h.1a6.5,6.5,0,0,1,4.78,2.26,4.17,4.17,0,0,1,1,3.42,6.57,6.57,0,0,1-.45,1.56,9.21,9.21,0,0,0-.65,2.29c-.1.64-.27.73-1.22,1.16-.26.11-.56.25-.88.41h0a2.17,2.17,0,0,0,.29,4l3.76,1.25a1.87,1.87,0,0,0,1.91-.46l2.57-2.64A1.15,1.15,0,0,1,53.48,44.14Z"/><path class="cls-1" d="M69.68,46.1v.14A1.32,1.32,0,0,0,71,47.58h0a1.33,1.33,0,0,0,1.33-1.32V46.1a1.33,1.33,0,1,0-2.65,0Z"/></svg>