<svg id="Layer_1" data-name="Layer 1" xmlns="http://www.w3.org/2000/svg" viewBox="0 0 100 85"><defs><style>.cls-1{fill:#5e6368;}.cls-2{fill:#9e925e;}</style></defs><path class="cls-1" d="M73.66,18.69H69.05v-.93a2.77,2.77,0,0,0-5.53,0v.93H35.87v-.93a2.76,2.76,0,1,0-5.52,0v.93H25.74a3.69,3.69,0,0,0-3.69,3.68V61.08a3.69,3.69,0,0,0,3.69,3.68H35.87a.92.92,0,1,0,0-1.84H25.74a1.85,1.85,0,0,1-1.85-1.84V29.74H75.5V61.08a1.85,1.85,0,0,1-1.84,1.84H63.52a.92.92,0,0,0,0,1.84H73.66a3.68,3.68,0,0,0,3.68-3.68V22.37A3.68,3.68,0,0,0,73.66,18.69Zm-8.3-.93a.93.93,0,0,1,1.85,0v4.61a.93.93,0,0,1-1.85,0Zm-33.17,0a.92.92,0,0,1,1.84,0v4.61a.92.92,0,0,1-1.84,0ZM23.89,27.9V22.37a1.85,1.85,0,0,1,1.85-1.84h4.61v1.84a2.76,2.76,0,1,0,5.52,0V20.53H63.52v1.84a2.77,2.77,0,1,0,5.53,0V20.53h4.61a1.85,1.85,0,0,1,1.84,1.84V27.9Z"/><path class="cls-2" d="M49.7,39A11.07,11.07,0,0,0,38.64,50v12.9a11.06,11.06,0,1,0,22.12,0V50A11.08,11.08,0,0,0,49.7,39Zm-8,18.69a11,11,0,0,0,16,0,13.84,13.84,0,0,1-8,8.27,13.76,13.76,0,0,1-8-8.3Zm8,14.48a9.21,9.21,0,0,1-9.22-9.21V59.49c2.17,4.81,6.71,9.12,15.89,9.79A9.2,9.2,0,0,1,49.7,72.13Zm9.21-9.21a9.22,9.22,0,0,1-1.22,4.59,26.21,26.21,0,0,1-5.46-.74,15.26,15.26,0,0,0,6.68-7.28v3.43ZM50.62,40.85a9.22,9.22,0,1,1-3.39.29"/><path class="cls-2" d="M46.93,49.1a.92.92,0,1,0-1.84,0V50a.92.92,0,1,0,1.84,0Z"/><path class="cls-2" d="M53.38,48.17a.93.93,0,0,0-.92.93V50a.92.92,0,0,0,1.84,0V49.1A.93.93,0,0,0,53.38,48.17Z"/><path class="cls-2" d="M51.17,54.57a2.08,2.08,0,0,1-2.92,0A1,1,0,1,0,46.79,56a4.13,4.13,0,0,0,5.84,0,1,1,0,1,0-1.46-1.45Z"/></svg>