<svg id="Layer_1" data-name="Layer 1" xmlns="http://www.w3.org/2000/svg" viewBox="0 0 100 85"><defs><style>.cls-1{fill:#9e925e;}.cls-2{fill:#5e6368;}</style></defs><path class="cls-1" d="M55.65,57.22c-.54,0-1,0-1,.53s.44.53,1,.53h.45c.54,0,1,0,1-.53s-.43-.53-1-.53Z"/><path class="cls-2" d="M78.58,46.81a1,1,0,0,0-.22,1.37,16.32,16.32,0,1,1-2.48-2.74A1,1,0,0,0,77.17,44,18.38,18.38,0,0,0,67.7,39.6a33.83,33.83,0,0,0-1.07-9.72,2.63,2.63,0,0,1,.67-2.53l1-1a3.46,3.46,0,0,0,.13-4.83A3.36,3.36,0,0,0,66,20.42a3.56,3.56,0,0,0-2.65,1.15,2.6,2.6,0,0,1-3,.5c-6.68-3.27-19-4-28.74-1.6a1,1,0,0,0,.46,1.91,52.5,52.5,0,0,1,14.56-1.29c5.18.24,9.74,1.21,12.86,2.73A4.57,4.57,0,0,0,64.7,23a1.58,1.58,0,0,1,1.23-.59,1.5,1.5,0,0,1,1.07.48A1.54,1.54,0,0,1,66.92,25l-1,1a4.56,4.56,0,0,0-1.17,4.44,32.24,32.24,0,0,1,1,9h-.69a18.37,18.37,0,0,0-18,14.83c-7.57.38-15.59-.77-20.62-3a4.57,4.57,0,0,0-5,1l-.31.31a1.5,1.5,0,0,1-2.11,0,1.48,1.48,0,0,1,0-2.11l.81-.81A4.58,4.58,0,0,0,21,45.2a29.78,29.78,0,0,1,.25-14.67A4.57,4.57,0,0,0,20.08,26L19,24.92a1.48,1.48,0,0,1,0-2.11,1.5,1.5,0,0,1,2.11,0l.47.47a4.57,4.57,0,0,0,5.16.91c.52-.25,1.09-.49,1.69-.71A1,1,0,0,0,29,22.22a1,1,0,0,0-1.26-.57c-.65.24-1.27.5-1.83.77A2.61,2.61,0,0,1,23,21.9l-.48-.47a3.45,3.45,0,1,0-4.88,4.88l1.1,1.09A2.61,2.61,0,0,1,19.35,30a32,32,0,0,0-.26,15.73,2.61,2.61,0,0,1-.67,2.51L17.6,49a3.45,3.45,0,1,0,4.88,4.88l.31-.32a2.62,2.62,0,0,1,2.87-.55c4.67,2.06,11.48,3.22,18.41,3.22.91,0,1.81,0,2.71-.06,0,.51-.06,1-.06,1.54A18.35,18.35,0,1,0,80,47a1,1,0,0,0-1.37-.23Z"/><path class="cls-1" d="M64.08,55.66l-.66-.56a1,1,0,0,0-1.38.13,1,1,0,0,0,.12,1.37l2.27,1.9A1,1,0,0,0,66,57.75V52.33a1,1,0,1,0-2,0v3.33Z"/><path class="cls-1" d="M60.12,69.77A1,1,0,0,0,60.75,71,13.93,13.93,0,1,0,57,69.1a1,1,0,1,0,1.14-1.59,12,12,0,1,1,3.23,1.63A1,1,0,0,0,60.12,69.77Z"/><path class="cls-1" d="M58.78,50.86c-.38-.4-.67-.72-1.06-.34s-.09.68.29,1.07l.31.32c.37.39.67.72,1.06.34s.08-.68-.29-1.07Z"/><path class="cls-1" d="M58.21,64.25c-.38.38-.7.68-.32,1.06s.69.07,1.07-.31l.32-.31c.38-.38.7-.69.32-1.07s-.68-.07-1.07.31Z"/><path class="cls-1" d="M64.45,67.14c0,.54,0,1,.52,1s.54-.43.54-1V66.7c0-.54,0-1-.52-1s-.53.43-.54,1Z"/><path class="cls-1" d="M71.42,64.88c.38.38.68.7,1.06.32s.07-.69-.31-1.07l-.32-.32c-.38-.38-.68-.7-1.06-.32s-.07.68.31,1.07Z"/><path class="cls-1" d="M74.1,57.21c-.54,0-1-.05-1,.49s.42.55,1,.57l.45,0c.54,0,1,.05,1-.49s-.42-.55-1-.57Z"/><path class="cls-1" d="M70.92,51.17c-.38.38-.7.68-.32,1.06s.68.07,1.07-.31l.32-.31c.38-.38.7-.69.32-1.07s-.69-.07-1.07.31Z"/><path class="cls-1" d="M64.39,48.74c0,.54,0,1,.55,1s.52-.45.51-1v-.45c0-.54,0-1-.54-1s-.53.45-.52,1Z"/></svg>