<svg id="Layer_1" data-name="Layer 1" xmlns="http://www.w3.org/2000/svg" viewBox="0 0 100 85"><defs><style>.cls-1{fill:#5e6368;}.cls-2{fill:#9e925e;}</style></defs><path class="cls-1" d="M71.93,14.91H28.07a1.69,1.69,0,0,0-1.68,1.69v3.2a1.68,1.68,0,0,0,1.68,1.68h.53v4.35a.89.89,0,1,0,1.78,0V21.48H69.62V69.21a0,0,0,0,1,0,0H61.76a.89.89,0,0,0,0,1.78h7.82a1.82,1.82,0,0,0,1.82-1.82V21.48h.53a1.68,1.68,0,0,0,1.68-1.68V16.6a1.69,1.69,0,0,0-1.68-1.69Zm-.1,4.79H28.17v-3H71.83Z"/><path class="cls-1" d="M57.61,69.25H30.42a0,0,0,0,1,0,0V29.91a.89.89,0,0,0-1.78,0v39.3A1.82,1.82,0,0,0,30.42,71H46.74V72.5a3.26,3.26,0,0,0,6.52,0V71h4.35a.89.89,0,1,0,0-1.78ZM51.47,72.5a1.47,1.47,0,1,1-2.94,0V71h2.94V72.5Z"/><path class="cls-2" d="M48.33,34.71h3.34a.6.6,0,0,0,0-1.19H48.93V30.75h2.49a.59.59,0,0,0,.6-.59.6.6,0,0,0-.6-.6H48.93V26.8h2.74a.6.6,0,0,0,0-1.19H48.33a.6.6,0,0,0-.59.59v7.91a.6.6,0,0,0,.59.6Z"/><path class="cls-2" d="M41.9,43.34a.59.59,0,0,0,.6-.59V40.58h1.43a.59.59,0,0,0,.59-.6.58.58,0,0,0-.59-.59H42.5V37.91h1.6a.6.6,0,1,0,0-1.19H41.9a.59.59,0,0,0-.59.6v5.43a.58.58,0,0,0,.59.59Z"/><path class="cls-2" d="M55,43.36a.58.58,0,0,0,.59-.59V41h.93a2.14,2.14,0,1,0,0-4.28H54.88a.64.64,0,0,0-.47.55s0,5.51,0,5.51a.59.59,0,0,0,.6.59Zm1.52-5.47a1,1,0,1,1,0,1.9H55.6v-1.9Z"/><path class="cls-2" d="M58.39,53.31a.61.61,0,0,0,.53.31h2.45A.59.59,0,0,0,62,53a.6.6,0,0,0-.59-.6H60l1.8-2.75a.6.6,0,0,0-.5-.92H59a.59.59,0,0,0-.59.6A.58.58,0,0,0,59,50h1.22L58.42,52.7a.61.61,0,0,0,0,.61Z"/><path class="cls-2" d="M39.64,53.62a.59.59,0,0,0,.6-.59V50h.42a.59.59,0,0,0,.6-.59.6.6,0,0,0-.6-.6h-2a.6.6,0,0,0-.59.6.59.59,0,0,0,.59.59h.42V53a.59.59,0,0,0,.59.59Z"/><path class="cls-2" d="M47.57,51.19A2.43,2.43,0,1,0,50,48.76,2.43,2.43,0,0,0,47.57,51.19Zm3.67,0A1.24,1.24,0,1,1,50,50,1.24,1.24,0,0,1,51.24,51.19Z"/><path class="cls-2" d="M38.31,63.93h-1V60.12a.59.59,0,0,0-.59-.6.6.6,0,0,0-.6.6v4.4a.6.6,0,0,0,.5.59h1.65a.6.6,0,0,0,.59-.6.59.59,0,0,0-.6-.59Z"/><path class="cls-2" d="M54.41,60.75a.6.6,0,1,0,0-1.19H52.57a.6.6,0,0,0-.6.6v4.37a.6.6,0,0,0,.6.59h1.84a.6.6,0,1,0,0-1.19H53.16v-1h1.12a.6.6,0,0,0,.59-.6.59.59,0,0,0-.59-.59H53.16v-1Z"/><path class="cls-2" d="M61.5,59.65H60.29a.56.56,0,0,0-.42.18.59.59,0,0,0-.17.42h0s0,4.29,0,4.33a.58.58,0,0,0,.17.37.59.59,0,0,0,.42.17h1.25a2.47,2.47,0,0,0,2.28-2.72c0-1.64-.94-2.74-2.33-2.74Zm0,4.27h-.64V60.84h.61c1,0,1.14,1.18,1.14,1.55C62.64,63.14,62.29,63.91,61.53,63.92Z"/><path class="cls-2" d="M45.42,59.52H44.19c-.61,0-.59.71-.59,1.14v3.87a.59.59,0,0,0,.59.59.6.6,0,0,0,.6-.59V63.2h.63a1.84,1.84,0,1,0,0-3.68Zm0,2.49h-.63v-1.3h.63a.65.65,0,1,1,0,1.3Z"/><path class="cls-1" d="M36.22,46.54H63.78a.59.59,0,0,0,.6-.59.6.6,0,0,0-.6-.6H36.22a.6.6,0,0,0-.6.6A.59.59,0,0,0,36.22,46.54Z"/><path class="cls-1" d="M63.78,55.84H36.22a.6.6,0,1,0,0,1.19H63.78a.6.6,0,1,0,0-1.19Z"/></svg>